# xmcd
#
# Track frame offsets:
#	150
#	13258
#	30472
#	46099
#	55966
#	69001
#	84258
#	99785
#	112089
#	125120
#	137548
#	154866
#
# Disc length: 2279 seconds
#
# Revision: 1
# Processed by: cddbd v1.5.2PL0 Copyright (c) Steve Scherf et al.
# Submitted via: audiograbber 1.83.01
#
DISCID=9108e50c
DTITLE=Rhonda Vincent - Destination Life
DYEAR=2009
DGENRE=Bluegrass
TTITLE0=Last Time Loving You
TTITLE1=I Can Make You Whisper I Love You
TTITLE2=Destination Life
TTITLE3=Heart Wrenching Lovesick Memories
TTITLE4=Crazy What A Lonely Heart Will Do
TTITLE5=Anywhere Is Home When You're With Me
TTITLE6=Stop The World (And Let Me Off)
TTITLE7=Crazy Love
TTITLE8=What A Woman Wants To Hear
TTITLE9=I Heard My Savior Calling Me
TTITLE10=Eighth Of January
TTITLE11=When I Travel, My Last Mile (He Will Hold My Hand)
EXTD=
EXTT0=
EXTT1=
EXTT2=
EXTT3=
EXTT4=
EXTT5=
EXTT6=
EXTT7=
EXTT8=
EXTT9=
EXTT10=
EXTT11=
PLAYORDER=
